<svg viewBox="0 0 16 16" xmlns="http://www.w3.org/2000/svg"><path class="st0" d="m8 0c-4.4 0-8 3.6-8 8s3.6 8 8 8 8-3.6 8-8-3.6-8-8-8zm-0.9 12.9s0 0.1-0.1 0.1l-0.3 0.3c-0.1 0.1-0.2 0.1-0.3 0.1h-0.2c-0.3-0.1-0.5-0.4-0.5-0.8-1.7-0.9-2.8-2.6-2.8-4.6 0-2.8 2.3-5.1 5.1-5.1 0.3 0 0.6 0 1 0.1 0.2-0.3 0.5-0.4 0.9-0.3 0.1 0 0.3 0.1 0.3 0.3 0.1 0.1 0.1 0.3 0.1 0.5v0.2l-3.2 9.2zm1.3 0.2l0.7-2.1c1.2-0.4 2.1-1.6 2.1-3 0-0.6-0.2-1.3-0.5-1.8l0.7-2.1c1.1 0.9 1.8 2.3 1.8 3.9-0.1 2.7-2.2 4.9-4.8 5.1zm-3.6-5.1c0 1.1 0.6 2.1 1.5 2.7l2-5.8h-0.3c-1.7-0.1-3.2 1.4-3.2 3.1z"/></svg>